<?xml version="1.0" encoding="UTF-8"?>
<svg width="46" height="63" fill="none" version="1.1" viewBox="0 0 46 63" xmlns="http://www.w3.org/2000/svg">
    <path d="m 13,0 -2.00781,0.76953125 -10,8.99999995 L 0,12 V 22.5 L 0.99219,24.730469 8.51367,31.5 0.99219,38.269531 0,40.5 V 51 l 0.99219,2.230469 10,9 L 13,63 h 20 l 2.00781,-0.769531 10,-9 L 46,51 V 40.5 L 45.00781,38.269531 37.48633,31.5 45.00781,24.730469 46,22.5 V 12 l -0.99219,-2.2304688 -10,-8.99999995 L 33,0 Z m 1.15234,6 H 31.84961 L 40,13.335938 v 7.828124 L 31.84766,28.5 H 14.15234 L 6,21.164062 v -7.828124 z m 0,28.5 H 31.84766 L 40,41.835938 v 7.828124 L 31.84961,57 H 14.15039 L 6,49.664062 v -7.828124 z" fill="#000"/>
</svg>
