<?xml version="1.0" encoding="UTF-8"?>
<svg width="43" height="63" fill="none" version="1.1" viewBox="0 0 43 63" xmlns="http://www.w3.org/2000/svg">
    <path d="m 11.5,0 -1.003906,0.38476562 -10,8.99999998 L 0,10.5 v 12 L 0.496094,23.615234 9.257812,31.5 0.496094,39.384766 0,40.5 v 12 l 0.496094,1.115234 10,9 L 11.5,63 h 20 l 1.003906,-0.384766 10.000004,-9 L 43,52.5 v -12 L 42.50391,39.384766 33.742188,31.5 42.50391,23.615234 43,22.5 v -12 L 42.50391,9.3847656 32.503906,0.38476562 31.5,0 Z m 0.576172,3 H 30.923828 L 40,11.167969 V 21.832031 L 30.923828,30 H 12.076172 L 3,21.832031 V 11.167969 Z m 0,30 H 30.923828 L 40,41.167969 V 51.832031 L 30.923828,60 H 12.076172 L 3,51.832031 V 41.167969 Z" fill="#000"/>
</svg>
