<?xml version="1.0" encoding="UTF-8"?>
<svg width="46" height="63" fill="none" version="1.1" viewBox="0 0 46 63" xmlns="http://www.w3.org/2000/svg">
    <path d="m 13,0 -2.00781,0.76953125 -10,9.00000005 L 0,12 v 10.5 l 0.99219,2.230469 10,9 L 13,34.5 H 33 L 35.00781,33.730469 40,29.238281 V 44.091797 L 31.39453,57 H 14.15039 l -9.14258,-8.230469 -4.01562,4.460938 10,9 L 13,63 h 20 l 2.49609,-1.335938 10,-15 L 46,45 V 12 l -0.99219,-2.2304687 -10,-9.00000005 L 33,0 Z m 1.15039,6 H 31.84961 L 40,13.335938 v 7.826171 L 31.84961,28.5 H 14.15039 L 6,21.164062 v -7.828124 z" fill="#000"/>
</svg>
