<?xml version="1.0" encoding="UTF-8"?>
<svg width="43" height="63" fill="none" version="1.1" viewBox="0 0 43 63" xmlns="http://www.w3.org/2000/svg">
    <path d="m 11.5,0 -1.003906,0.38476563 -10,8.99999997 L 0,10.5 v 12 l 0.496094,1.115234 10,9 L 11.5,33 h 20 L 32.503906,32.615234 40,25.869141 V 46.044922 L 30.697266,60 H 12.076172 l -9.572266,-8.615234 -2.007812,2.230468 10,9 L 11.5,63 h 20 l 1.248047,-0.667969 10.000003,-15 L 43,46.5 v -36 L 42.50391,9.3847656 32.503906,0.38476563 31.5,0 Z m 0.576172,3 H 30.923828 L 40,11.167969 V 21.832031 L 30.923828,30 H 12.076172 L 3,21.832031 V 11.167969 Z" fill="#000"/>
</svg>
