<?xml version="1.0" encoding="UTF-8"?>
<svg width="8" height="28" fill="none" version="1.1" viewBox="0 0 8 28" xmlns="http://www.w3.org/2000/svg">
    <path d="M 4.007812,0 C 1.810271,0 0,1.8102588 0,4.0078125 0,6.2053621 1.822477,8 4.007812,8 6.193149,8 8,6.1931707 8,4.0078125 8,1.8224502 6.205355,0 4.007812,0 Z m 0,3 C 4.571205,3 5,3.4322204 5,4.0078125 5,4.5833888 4.583411,5 4.007812,5 3.432215,5 3,4.5711973 3,4.0078125 3,3.4444118 3.444421,3 4.007812,3 Z m 0,17 C 1.810235,20 0,21.810292 0,24.007812 0,26.205375 1.822477,28 4.007812,28 6.193149,28 8,26.193183 8,24.007812 8,21.822484 6.205391,20 4.007812,20 Z m 0,3 C 4.571169,23 5,23.432347 5,24.007812 5,24.583437 4.583411,25 4.007812,25 3.432215,25 3,24.571246 3,24.007812 3,23.44454 3.444457,23 4.007812,23 Z" fill="#000"/>
</svg>
