<?xml version="1.0" encoding="UTF-8"?>
<svg width="11" height="31" fill="none" version="1.1" viewBox="0 0 11 31" xmlns="http://www.w3.org/2000/svg">
    <path d="M 5.507812,0 C 2.493196,0 0,2.4931823 0,5.5078125 0,8.522445 2.517607,11 5.507812,11 8.498019,11 11,8.498062 11,5.5078125 11,2.5175651 8.52243,0 5.507812,0 Z m 0,5 C 5.737084,5 6,5.254115 6,5.5078125 6,5.7614882 5.761496,6 5.507812,6 5.25413,6 5,5.7371055 5,5.5078125 5,5.2784979 5.278542,5 5.507812,5 Z m 0,15 C 2.493123,20 0,22.493169 0,25.507812 0,28.522439 2.517607,31 5.507812,31 8.498019,31 11,28.498058 11,25.507812 11,22.517552 8.522503,20 5.507812,20 Z m 0,5 C 5.737084,25 6,25.254181 6,25.507812 6,25.761663 5.761568,26 5.507812,26 5.254058,26 5,25.737279 5,25.507812 5,25.278564 5.278542,25 5.507812,25 Z" fill="#000"/>
</svg>
