<?xml version="1.0" encoding="UTF-8"?>
<svg width="38.457031" height="63" fill="none" version="1.1" viewBox="0 0 38.457031 63" xmlns="http://www.w3.org/2000/svg">
    <path d="m35.867188 0-35.867188 61.488281 2.589844 1.511719 35.867188-61.4882812zm-25.138672 1.5c-4.954408 0-8.984375 4.029813-8.984375 8.984375 0 4.954546 4.022664 9.015625 8.984375 9.015625 4.961808 0 9.015625-4.053793 9.015625-9.015625 0-4.9618482-4.06112-8.984375-9.015625-8.984375zm0 3c3.348679 0 6.015625 2.6428795 6.015625 5.984375 0 3.341472-2.674249 6.015625-6.015625 6.015625-3.341232 0-5.984375-2.666867-5.984375-6.015625 0-3.3487817 2.635839-5.984375 5.984375-5.984375zm17 39c-4.954946 0-9 4.055536-9 9.015625 0 4.935815 4.045054 8.984375 9 8.984375s9-4.04856 9-8.984375c0-4.960089-4.045054-9.015625-9-9.015625zm0 3c3.331238 0 6 2.672731 6 6.015625 0 3.306769-2.668762 5.984375-6 5.984375s-6-2.677606-6-5.984375c0-3.342894 2.668762-6.015625 6-6.015625z" fill="#000"/>
</svg>
