<?xml version="1.0" encoding="UTF-8"?>
<svg width="40.167961" height="63" fill="none" version="1.1" viewBox="0 0 40.167961 63" xmlns="http://www.w3.org/2000/svg">
    <path d="m11.58398 0c-5.75734 0-10.48438 4.7269227-10.48438 10.484375 0 5.75744 4.71243 10.515625 10.48438 10.515625 5.77202 0 10.51562-4.743618 10.51562-10.515625 0-5.7720199-4.75821-10.484375-10.51562-10.484375zm23.40039 0-34.98437 59.976562 5.18359 3.023438 34.98437-59.9765625zm-23.40039 6c2.54577 0 4.51563 1.9530509 4.51562 4.484375 0 2.531295-1.98446 4.515625-4.51562 4.515625-2.531 0-4.48438-1.969762-4.48438-4.515625 0-2.5458917 1.93878-4.484375 4.48438-4.484375zm17 36c-5.7668 0-10.5 4.746943-10.5 10.515625 0 5.750332 4.7332 10.484375 10.5 10.484375s10.5-4.734038 10.5-10.484375c0-5.768687-4.7332-10.515625-10.5-10.515625zm0 6c2.51939 0 4.5 1.981329 4.5 4.515625 0 2.492246-1.98061 4.484375-4.5 4.484375-2.5194 0-4.5-1.992124-4.5-4.484375 0-2.534301 1.9806-4.515625 4.5-4.515625z" fill="#000"/>
</svg>
