<?xml version="1.0" encoding="UTF-8"?>
<svg width="42.5625" height="63" fill="none" version="1.1" viewBox="0 0 42.5625 63" xmlns="http://www.w3.org/2000/svg">
    <path d="m11.037109 0-1.060547 0.43945312-9.976562 9.97460888 2.123047 2.123047 9.535156-9.537109h18.773438l9.130859 9.128906v10.964844l-19.472656 16.070312-0.544922 1.15625v8.964844h3v-8.257812l19.470708-16.06836 0.54687-1.158203v-12.292969l-0.43945-1.060546-10.009769-10.00781288-1.060547-0.43945312zm10.007813 55c-2.197632 0-4.007813 1.810182-4.007813 4.007812 0 2.197592 1.82235 3.992188 4.007813 3.992188 2.185421 0 3.992187-1.806766 3.992187-3.992188 0-2.185462-1.794596-4.007812-3.992187-4.007812zm0 3c0.563403 0 0.992187 0.432082 0.992187 1.007812 0 0.575574-0.416614 0.992188-0.992187 0.992188-0.575732 0-1.007813-0.428783-1.007813-0.992188 0-0.563562 0.44425-1.007812 1.007813-1.007812z" fill="#000"/>
</svg>
