<?xml version="1.0" encoding="UTF-8"?>
<svg width="45.123051" height="63" fill="none" version="1.1" viewBox="0 0 45.123051 63" xmlns="http://www.w3.org/2000/svg">
    <path d="m12.09766 0-2.12109 0.87890625-9.97657 9.97460975 4.24414 4.24414 9.09571-9.097656h17.53125l8.25195 8.25v8.136719l-18.92773 15.621093-1.08985 2.3125v8.964844h6v-7.550781l18.92578-15.619141 1.0918-2.314453v-10.792969l-0.87891-2.121093-10.00976-10.00781275-2.1211-0.87890625zm10.00781 52c-3.01467 0-5.50781 2.493147-5.50781 5.507812 0 3.014685 2.51748 5.492188 5.50781 5.492188 2.99035 0 5.49219-2.501841 5.49219-5.492188 0-2.990328-2.4775-5.507812-5.49219-5.507812zm0 5c0.22914 0 0.49219 0.254123 0.49219 0.507812 0 0.253472-0.23872 0.492188-0.49219 0.492188-0.25369 0-0.50781-0.263053-0.50781-0.492188 0-0.22935 0.27846-0.507812 0.50781-0.507812z" fill="#000"/>
</svg>
