<?xml version="1.0" encoding="UTF-8"?>
<svg width="46" height="63" fill="none" version="1.1" viewBox="0 0 46 63" xmlns="http://www.w3.org/2000/svg">
    <path d="m 13,0 -2.00781,0.76953125 -10,9.00000005 L 0,12 v 10.5 l 0.99219,2.230469 10,9 L 13,34.5 H 31.84961 L 40,41.835937 v 7.828125 L 31.84961,57 H 14.15039 l -9.14258,-8.230469 -4.01562,4.460938 10,9 L 13,63 h 20 l 2.00781,-0.769531 10,-9 L 46,51 V 40.5 l -0.99219,-2.230469 -10,-9 L 33,28.5 H 14.15039 L 6,21.164062 V 13.335938 L 14.15039,6 h 17.69922 l 9.14258,8.230469 4.01562,-4.4609377 -10,-9.00000005 L 33,0 Z" fill="#000"/>
</svg>
