<?xml version="1.0" encoding="UTF-8"?>
<svg width="43" height="63" fill="none" version="1.1" viewBox="0 0 43 63" xmlns="http://www.w3.org/2000/svg">
    <path d="m 11.5,0 -1.003906,0.38476563 -10,8.99999997 L 0,10.5 v 12 l 0.496094,1.115234 10,9 L 11.5,33 H 30.923828 L 40,41.167969 V 51.832031 L 30.923828,60 H 12.076172 l -9.572266,-8.615234 -2.007812,2.230468 10,9 L 11.5,63 h 20 l 1.003906,-0.384766 10.000004,-9 L 43,52.5 v -12 l -0.49609,-1.115234 -10.000004,-9 L 31.5,30 H 12.076172 L 3,21.832031 V 11.167969 L 12.076172,3 H 30.923828 L 40.49609,11.615234 42.50391,9.3847656 32.503906,0.38476563 31.5,0 Z" fill="#000"/>
</svg>
